<svg version="1.2" xmlns="http://www.w3.org/2000/svg" viewBox="0 0 20 16" width="20" height="16">
	<title>mail-svg</title>
	<style>
		.s0 { fill: #ffffff } 
	</style>
	<path id="Shape 1 copy" fill-rule="evenodd" class="s0" d="m15.4 0c1.4 0 2.6 1 2.6 2.3v11.4c0 1.3-1.2 2.3-2.6 2.3h-12.8c-1.4 0-2.6-1-2.6-2.3v-11.4c0-1.3 1.2-2.3 2.6-2.3zm-6.5 8.8q0.2 0 0.3-0.1l6.2-4.4c-0.1-0.7-0.7-1.3-1.3-1.3h-10.3c-0.7 0-1.2 0.6-1.3 1.3l6.2 4.4q0.1 0.1 0.2 0.1zm0 1.4q-0.5 0-0.9-0.3l-5.5-3.9v5.6c0 0.8 0.6 1.4 1.3 1.4h10.3c0.7 0 1.3-0.6 1.3-1.4v-5.6l-5.5 3.9q-0.4 0.3-1 0.3z"/>
</svg>